<?xml version="1.0" encoding="UTF-8"?>
<!DOCTYPE svg PUBLIC "-//W3C//DTD SVG 1.1//EN" "http://www.w3.org/Graphics/SVG/1.1/DTD/svg11.dtd">
<!-- Creator: CorelDRAW X7 -->
<svg xmlns="http://www.w3.org/2000/svg" xml:space="preserve" width="8.5in" height="11in" version="1.1" style="shape-rendering:geometricPrecision; text-rendering:geometricPrecision; image-rendering:optimizeQuality; fill-rule:evenodd; clip-rule:evenodd"
viewBox="0 0 8500 11000"
 xmlns:xlink="http://www.w3.org/1999/xlink">
 <defs>
  <style type="text/css">
   <![CDATA[
    .fil1 {fill:#FEFEFE}
    .fil0 {fill:url(#id0)}
   ]]>
  </style>
  <linearGradient id="id0" gradientUnits="userSpaceOnUse" x1="-0" y1="5500" x2="8500" y2="5500">
   <stop offset="0" style="stop-opacity:1; stop-color:#EC1577"/>
   <stop offset="1" style="stop-opacity:1; stop-color:#EE802B"/>
  </linearGradient>
 </defs>
 <g id="Layer_x0020_1">
  <metadata id="CorelCorpID_0Corel-Layer"/>
  <path class="fil0" d="M0 5500c0,2347 1903,4250 4250,4250 2347,0 4250,-1903 4250,-4250 0,-2347 -1903,-4250 -4250,-4250 -2347,0 -4250,1903 -4250,4250z"/>
  <path class="fil1" d="M4530 4580c24,247 -656,859 -791,970 -159,132 -320,242 -532,349 -188,96 -461,200 -608,281 -202,111 -329,291 -347,534 -18,237 96,489 258,621 549,449 1007,-119 1660,-208 638,-87 1154,635 1718,301 162,-96 304,-289 344,-545 83,-531 -360,-932 -888,-790 -508,136 -798,476 -1360,320 -17,-259 649,-844 786,-968 392,-354 849,-431 1143,-620 155,-100 312,-287 336,-547 24,-272 -127,-501 -258,-615 -466,-404 -865,-12 -1301,128 -237,76 -513,112 -769,49 -456,-113 -792,-552 -1307,-256 -167,96 -311,270 -355,526 -87,509 397,931 905,808 213,-51 414,-189 612,-271 193,-80 532,-150 754,-67z"/>
 </g>
</svg>
